<?xml version="1.0" encoding="UTF-8" standalone="no"?>
<svg width="245px" height="240px" viewBox="0 0 245 240" version="1.1" xmlns="http://www.w3.org/2000/svg" xmlns:xlink="http://www.w3.org/1999/xlink" xmlns:sketch="http://www.bohemiancoding.com/sketch/ns">
    <!-- Generator: Sketch 3.4.4 (17249) - http://www.bohemiancoding.com/sketch -->
    <title>logo NBWM</title>
    <desc>Created with Sketch.</desc>
    <defs></defs>
    <g id="Page-1" stroke="none" stroke-width="1" fill="none" fill-rule="evenodd" sketch:type="MSPage">
        <g id="logo-NBWM" sketch:type="MSLayerGroup" transform="translate(3.000000, 3.000000)">
            <path d="M82.5,208.5 L160.5,208.5" id="Line" stroke="#979797" stroke-linecap="square" sketch:type="MSShapeGroup"></path>
            <rect id="Rectangle-1" fill="#F96C01" sketch:type="MSShapeGroup" x="1" y="1" width="237" height="232"></rect>
            <path d="M4,4 L235,230" id="Line" stroke="#FFFFFF" stroke-width="9" stroke-linecap="square" sketch:type="MSShapeGroup"></path>
            <path d="M4,230 L235,4" id="Line" stroke="#FFFFFF" stroke-width="9" stroke-linecap="square" sketch:type="MSShapeGroup"></path>
            <g id="arrow-4" transform="translate(70.000000, 157.000000)" fill="#FFFFFF" sketch:type="MSShapeGroup">
                <polygon id="Triangle-2" points="50 0 100 52 0 52 "></polygon>
                <rect id="Rectangle-2" x="33" y="51" width="32" height="26"></rect>
            </g>
            <g id="arrow-3" transform="translate(161.000000, 67.000000)" fill="#FFFFFF" sketch:type="MSShapeGroup">
                <polygon id="Triangle-2" transform="translate(26.911054, 50.691102) rotate(-90.000000) translate(-26.911054, -50.691102) " points="26.9110541 24.6911019 76.9110541 76.6911019 -23.0889459 76.6911019 "></polygon>
                <rect id="Rectangle-2" transform="translate(64.911054, 51.691102) rotate(-90.000000) translate(-64.911054, -51.691102) " x="48.9110541" y="38.6911019" width="32" height="26"></rect>
            </g>
            <g id="arrow-2" transform="translate(0.000000, 70.000000)" fill="#FFFFFF" sketch:type="MSShapeGroup">
                <polygon id="Triangle-2" transform="translate(51.480869, 50.148919) rotate(90.000000) translate(-51.480869, -50.148919) " points="51.480869 24.1489186 101.480869 76.1489186 1.48086902 76.1489186 "></polygon>
                <rect id="Rectangle-2" transform="translate(13.480869, 49.148919) rotate(90.000000) translate(-13.480869, -49.148919) " x="-2.51913098" y="36.1489186" width="32" height="26"></rect>
            </g>
            <g id="arrow-1" transform="translate(69.000000, 0.000000)" fill="#FFFFFF" sketch:type="MSShapeGroup">
                <polygon id="Triangle-2" transform="translate(50.328981, 51.841724) rotate(180.000000) translate(-50.328981, -51.841724) " points="50.328981 25.8417237 100.328981 77.8417237 0.328981014 77.8417237 "></polygon>
                <rect id="Rectangle-2" transform="translate(51.328981, 13.841724) rotate(180.000000) translate(-51.328981, -13.841724) " x="35.328981" y="0.841723708" width="32" height="26"></rect>
            </g>
        </g>
    </g>
</svg>