<?xml version="1.0" encoding="utf-8"?>
<!-- Generator: Adobe Illustrator 16.0.0, SVG Export Plug-In . SVG Version: 6.00 Build 0)  -->
<!DOCTYPE svg PUBLIC "-//W3C//DTD SVG 1.1//EN" "http://www.w3.org/Graphics/SVG/1.1/DTD/svg11.dtd">
<svg version="1.1" xmlns="http://www.w3.org/2000/svg" xmlns:xlink="http://www.w3.org/1999/xlink" x="0px" y="0px" width="2940px"
	 height="1235.529px" viewBox="0 0 1940 235.529" enable-background="new 0 0 1940 235.529" xml:space="preserve">
<g id="Laag_2">
</g>
<g id="Laag_1">
	<g>
		<path fill="#FFFFFF" d="M361.492,22.064l0.75,0.045c1.119,0.065,2.809,0.412,5.024,1.036c2.184,0.608,3.765,1.231,4.669,1.837
			c0.915,0.665,1.646,2.092,2.171,4.245c0.556,2.292,0.839,5.63,0.839,9.928v33.454l-41.725-55.86h-23.009v5.32l0.758,0.04
			c1.275,0.065,2.997,0.503,5.116,1.306c2.098,0.788,3.779,1.748,4.988,2.84c0.864,0.795,1.57,1.951,2.102,3.449
			c0.541,1.533,0.815,3.091,0.815,4.622v37.127c0,4.838-0.231,8.294-0.68,10.261c-0.425,1.845-1.199,3.224-2.327,4.117
			c-0.271,0.236-1.15,0.74-3.994,1.505c-2.227,0.603-3.826,0.944-4.746,1.013l-0.737,0.054v5.304h32.909v-5.331l-0.762-0.029
			c-0.528-0.023-1.813-0.217-4.946-1.041c-3.043-0.792-4.271-1.513-4.793-2.007c-1.014-0.873-1.787-2.415-2.302-4.579
			c-0.539-2.256-0.815-5.569-0.815-9.855V34.376l44.844,59.758l0.239,0.316h5.875V38.471c0-3.793,0.221-6.963,0.662-9.421
			c0.404-2.284,1.17-3.824,2.252-4.566c0.82-0.518,2.243-1.04,4.232-1.553c2.017-0.514,3.52-0.79,4.461-0.821l0.77-0.028V16.75
			h-32.64V22.064z"/>
		<path fill="#FFFFFF" d="M473.044,69.917h-5.308l-0.175,0.561c-0.484,1.568-1.634,4.088-3.412,7.486
			c-1.771,3.374-3.473,5.912-5.064,7.549c-0.503,0.528-1.418,0.961-2.716,1.29c-1.417,0.364-2.799,0.616-4.111,0.748
			c-1.291,0.143-2.91,0.213-4.812,0.213h-4.682c-2.942,0-5.223-0.098-6.788-0.285c-1.476-0.181-2.639-0.568-3.454-1.153
			c-0.785-0.567-1.299-1.393-1.571-2.517c-0.309-1.24-0.466-2.979-0.466-5.168V56.844h7.815c2.238,0,4.052,0.207,5.395,0.609
			c1.252,0.375,2.393,1.193,3.397,2.443c0.622,0.771,1.239,2.071,1.832,3.868c0.607,1.828,0.981,3.578,1.119,5.208l0.063,0.731
			h5.558V38.579h-5.534l-0.084,0.702c-0.174,1.47-0.535,3.052-1.072,4.708c-0.528,1.622-1.16,2.927-1.879,3.864
			c-0.881,1.091-1.902,1.876-3.042,2.337c-1.17,0.472-3.105,0.71-5.753,0.71h-7.815V22.533h11.204c1.96,0,3.703,0.036,5.237,0.108
			c1.511,0.067,2.83,0.173,3.913,0.309c1.931,0.256,4.043,1.828,6.283,4.669c2.308,2.931,3.827,5.719,4.516,8.293l0.155,0.591h5.442
			V16.75h-60.669v5.304l0.737,0.052c0.935,0.071,2.209,0.28,3.793,0.622c1.564,0.339,2.814,0.731,3.736,1.169
			c1.068,0.479,1.765,1.085,2.077,1.798c0.351,0.802,0.527,1.737,0.527,2.789v54.181c0,1.166-0.196,2.131-0.581,2.869
			c-0.363,0.686-1.045,1.265-2.024,1.72c-0.26,0.116-1.031,0.363-3.266,0.648c-1.774,0.229-3.192,0.377-4.257,0.448l-0.741,0.046
			v5.312h64.925L473.044,69.917z"/>
		<path fill="#FFFFFF" d="M558.653,72.725c2.487-4.8,3.75-10.536,3.75-17.045c0-6.996-1.313-13.178-3.905-18.361
			c-2.596-5.199-6.23-9.46-10.794-12.668c-3.355-2.408-7.338-4.348-11.845-5.769c-4.504-1.416-9.147-2.132-13.798-2.132h-34.157v5.3
			l0.734,0.056c0.911,0.071,2.004,0.229,3.249,0.466c1.221,0.236,2.368,0.609,3.418,1.11c1.034,0.478,1.723,1.108,2.052,1.874
			c0.371,0.859,0.557,1.839,0.557,2.928v54.391c0,1.136-0.215,2.107-0.632,2.893c-0.401,0.744-1.04,1.297-1.972,1.696
			c-0.313,0.144-1.101,0.363-3.072,0.598c-1.618,0.189-2.95,0.286-3.967,0.286h-0.795v5.36h32.432c5.295,0,10.499-0.762,15.46-2.264
			c4.981-1.507,9.538-3.823,13.544-6.878C552.896,81.499,556.174,77.513,558.653,72.725z M521.791,87.763
			c-3.766,0-6.573-0.582-8.337-1.726c-1.675-1.095-2.491-3.063-2.491-6.023V22.875c0.851-0.027,1.969-0.061,3.347-0.101
			c1.836-0.055,3.487-0.081,4.952-0.081c4.275,0,8.207,0.815,11.691,2.418c3.486,1.611,6.464,3.847,8.853,6.647
			c2.534,2.947,4.493,6.458,5.82,10.425c1.329,3.986,2.004,8.518,2.004,13.468c0,5.033-0.507,9.525-1.506,13.358
			c-0.989,3.788-2.583,7.167-4.739,10.05c-2.026,2.711-4.714,4.86-7.985,6.39C530.115,86.983,526.208,87.763,521.791,87.763z"/>
		<path fill="#FFFFFF" d="M644.548,69.917h-5.31l-0.172,0.561c-0.486,1.568-1.635,4.088-3.415,7.486
			c-1.767,3.374-3.471,5.912-5.064,7.549c-0.503,0.528-1.417,0.961-2.714,1.29c-1.416,0.364-2.799,0.616-4.111,0.748
			c-1.291,0.143-2.91,0.213-4.813,0.213h-4.682c-2.941,0-5.222-0.098-6.788-0.285c-1.477-0.181-2.639-0.568-3.454-1.153
			c-0.783-0.567-1.297-1.393-1.572-2.517c-0.308-1.24-0.462-2.979-0.462-5.168V56.844h7.814c2.237,0,4.052,0.207,5.395,0.609
			c1.249,0.375,2.394,1.193,3.397,2.443c0.621,0.774,1.237,2.075,1.831,3.868c0.607,1.828,0.981,3.578,1.119,5.208l0.062,0.731
			h5.563V38.579h-5.54l-0.08,0.702c-0.174,1.47-0.535,3.052-1.071,4.708c-0.526,1.622-1.161,2.927-1.879,3.864
			c-0.88,1.091-1.902,1.876-3.043,2.337c-1.169,0.472-3.104,0.71-5.752,0.71h-7.814V22.533h11.201c1.96,0,3.708,0.036,5.238,0.108
			c1.513,0.067,2.832,0.173,3.914,0.309c1.931,0.256,4.041,1.828,6.284,4.669c2.306,2.931,3.824,5.719,4.513,8.293l0.155,0.591
			h5.442V16.75h-60.67v5.304l0.738,0.052c0.935,0.071,2.211,0.28,3.791,0.622c1.564,0.339,2.819,0.731,3.741,1.169
			c1.063,0.479,1.763,1.085,2.072,1.798c0.351,0.802,0.527,1.737,0.527,2.789v54.181c0,1.166-0.195,2.131-0.58,2.869
			c-0.365,0.686-1.044,1.265-2.024,1.72c-0.261,0.116-1.032,0.363-3.264,0.648c-1.778,0.229-3.195,0.377-4.259,0.448l-0.742,0.046
			v5.312h64.925L644.548,69.917z"/>
		<path fill="#FFFFFF" d="M730.993,87.935c-1.318-0.234-2.425-0.568-3.276-0.988c-1.202-0.612-2.436-1.413-3.662-2.384
			c-1.214-0.965-2.605-2.497-4.134-4.556c-3.625-4.814-6.681-8.901-9.17-12.268c-2.344-3.154-5.24-6.992-8.697-11.523
			c2.334-0.724,4.515-1.58,6.497-2.558c2.315-1.145,4.336-2.522,6-4.088c1.835-1.7,3.239-3.741,4.181-6.077
			c0.928-2.315,1.4-5.005,1.4-7.997c0-3.35-0.706-6.263-2.097-8.661c-1.385-2.384-3.265-4.341-5.589-5.818
			c-2.357-1.496-5.033-2.594-7.939-3.266c-2.874-0.664-5.995-1.002-9.275-1.002h-36.04v5.304l0.738,0.052
			c0.974,0.071,2.174,0.237,3.573,0.495c1.388,0.257,2.523,0.541,3.363,0.84c1.113,0.416,1.786,0.973,2.064,1.714
			c0.324,0.861,0.487,1.873,0.487,3.011v54.5c0,1.238-0.21,2.252-0.633,3.016c-0.4,0.731-1.034,1.278-1.959,1.669
			c-0.392,0.173-1.264,0.419-3.184,0.629c-1.625,0.176-2.865,0.3-3.721,0.371l-0.729,0.06v5.298h33.878v-5.336l-0.773-0.024
			c-1.079-0.035-2.426-0.156-4.014-0.367c-1.541-0.203-2.619-0.419-3.204-0.644c-1.09-0.419-1.774-0.983-2.081-1.716
			c-0.352-0.833-0.529-1.829-0.529-2.956V59.557h6.639c4.188,5.318,8.124,10.547,11.698,15.549
			c3.63,5.077,7.778,11.214,12.318,18.239l0.236,0.364h21.786v-5.333l-0.769-0.027C733.493,88.316,732.354,88.178,730.993,87.935z
			 M682.469,22.694h8.351c4.6,0,8.192,1.268,10.683,3.769c2.488,2.502,3.75,5.963,3.75,10.281c0,5.123-1.581,9.219-4.703,12.179
			c-3.131,2.967-7.113,4.475-11.825,4.475h-6.255V22.694z"/>
		<path fill="#FFFFFF" d="M807.937,69.707h-5.231l-0.188,0.52c-0.738,1.999-2.083,4.663-4.003,7.914
			c-1.924,3.257-3.624,5.708-5.051,7.288c-0.409,0.459-1.083,0.86-2.007,1.184c-1.011,0.355-2.136,0.639-3.336,0.838
			c-1.24,0.21-2.587,0.35-4.003,0.418c-1.417,0.072-2.786,0.106-4.1,0.106c-2.904,0-5.18-0.097-6.767-0.285
			c-1.475-0.175-2.584-0.541-3.271-1.078c-0.719-0.586-1.169-1.413-1.368-2.522c-0.223-1.238-0.333-3.021-0.333-5.307V28.166
			c0-1.051,0.202-2.054,0.605-2.974c0.359-0.825,1.023-1.396,2.029-1.748c0.693-0.234,1.86-0.519,3.372-0.819
			c1.542-0.31,2.812-0.484,3.772-0.516l0.767-0.028V16.75h-33.821v5.304l0.735,0.052c0.913,0.068,2.102,0.3,3.536,0.692
			c1.424,0.39,2.542,0.79,3.345,1.203c1.04,0.482,1.727,1.094,2.055,1.835c0.368,0.813,0.554,1.776,0.554,2.862v53.966
			c0,1.238-0.215,2.252-0.631,3.016c-0.401,0.731-1.038,1.278-1.961,1.669c-0.393,0.173-1.264,0.419-3.183,0.629
			c-1.625,0.176-2.866,0.3-3.721,0.371l-0.729,0.06v5.298h61.207L807.937,69.707z"/>
		<path fill="#FFFFFF" d="M842.856,88.389l-0.757-0.04c-2.75-0.137-5.248-0.59-7.422-1.34c-1.893-0.654-2.854-1.505-2.854-2.542
			c0-0.552,0.087-1.287,0.257-2.19c0.174-0.92,0.491-2.142,0.944-3.618c0.502-1.555,1.068-3.252,1.691-5.088
			c0.579-1.688,1.329-3.686,2.24-5.942h25.71l6.139,16.393c0.123,0.299,0.213,0.653,0.274,1.044
			c0.065,0.416,0.097,0.767,0.097,1.048c0,0.198-0.461,0.702-2.196,1.203c-1.779,0.512-4.067,0.862-6.796,1.035l-0.745,0.046v5.312
			h33.327v-5.331l-0.762-0.029c-0.84-0.032-1.904-0.212-3.172-0.537c-1.247-0.318-2.262-0.705-2.984-1.14
			c-1.137-0.758-2.036-1.543-2.673-2.328c-0.627-0.787-1.202-1.84-1.708-3.142l-25.45-65.01l-0.196-0.507h-5.39l-0.199,0.504
			c-3.623,9.207-7.75,19.707-12.378,31.498c-4.574,11.658-8.844,22.376-12.692,31.859c-0.723,1.763-1.465,3.162-2.21,4.151
			c-0.735,0.965-1.792,1.915-3.132,2.808c-0.814,0.517-1.893,0.938-3.205,1.252c-1.341,0.324-2.473,0.525-3.372,0.594l-0.734,0.058
			v5.3h30.347V88.389z M839.452,61.312l10.241-26.278l10.39,26.278H839.452z"/>
		<path fill="#FFFFFF" d="M904.293,23.416c2.097,0.788,3.777,1.748,4.988,2.84c0.864,0.795,1.566,1.951,2.1,3.449
			c0.542,1.533,0.814,3.091,0.814,4.622v37.127c0,4.838-0.23,8.294-0.68,10.261c-0.424,1.845-1.196,3.224-2.324,4.117
			c-0.271,0.236-1.151,0.74-3.993,1.505c-2.229,0.603-3.828,0.944-4.749,1.013l-0.735,0.054v5.304h32.907v-5.331l-0.764-0.029
			c-0.527-0.023-1.81-0.217-4.945-1.041c-3.041-0.792-4.269-1.513-4.791-2.007c-1.012-0.873-1.788-2.415-2.302-4.579
			c-0.539-2.256-0.812-5.569-0.812-9.855V34.376l44.842,59.758l0.24,0.316h5.875V38.471c0-3.793,0.221-6.963,0.659-9.421
			c0.407-2.284,1.171-3.824,2.253-4.566c0.821-0.518,2.244-1.04,4.232-1.553c2.017-0.514,3.521-0.79,4.46-0.821l0.769-0.028V16.75
			h-32.635v5.315l0.747,0.045c1.121,0.065,2.811,0.412,5.025,1.036c2.182,0.608,3.762,1.231,4.669,1.837
			c0.915,0.665,1.645,2.092,2.171,4.245c0.556,2.292,0.838,5.63,0.838,9.928v33.454l-41.726-55.86h-23.006v5.32l0.756,0.04
			C900.452,22.174,902.176,22.613,904.293,23.416z"/>
		<path fill="#FFFFFF" d="M1056.642,84.566c3.986-3.067,7.266-7.053,9.745-11.841c2.487-4.8,3.75-10.536,3.75-17.045
			c0-6.996-1.315-13.178-3.906-18.361c-2.597-5.199-6.229-9.46-10.794-12.668c-3.354-2.408-7.338-4.348-11.845-5.769
			c-4.503-1.416-9.147-2.132-13.798-2.132H995.64v5.3l0.731,0.056c0.91,0.071,2.002,0.229,3.247,0.466
			c1.225,0.236,2.371,0.609,3.42,1.11c1.032,0.478,1.722,1.108,2.051,1.874c0.371,0.859,0.558,1.839,0.558,2.928v54.391
			c0,1.136-0.217,2.107-0.631,2.893c-0.405,0.744-1.041,1.297-1.975,1.696c-0.314,0.144-1.1,0.363-3.069,0.598
			c-1.622,0.189-2.954,0.286-3.972,0.286h-0.794v5.36h32.434c5.294,0,10.497-0.762,15.459-2.264
			C1048.078,89.938,1052.637,87.622,1056.642,84.566z M1029.523,87.763c-3.769,0-6.573-0.582-8.337-1.726
			c-1.675-1.095-2.489-3.063-2.489-6.023V22.875c0.85-0.027,1.964-0.061,3.345-0.101c1.837-0.055,3.487-0.081,4.953-0.081
			c4.277,0,8.208,0.815,11.691,2.418c3.484,1.611,6.463,3.847,8.852,6.647c2.535,2.947,4.492,6.458,5.818,10.425
			c1.331,3.986,2.005,8.518,2.005,13.468c0,5.033-0.504,9.525-1.506,13.358c-0.989,3.788-2.583,7.167-4.738,10.05
			c-2.024,2.711-4.714,4.86-7.984,6.39C1037.847,86.983,1033.941,87.763,1029.523,87.763z"/>
		<path fill="#FFFFFF" d="M1140.28,71.509c0-2.875-0.401-5.445-1.201-7.631c-0.804-2.193-2.06-4.238-3.749-6.088
			c-1.514-1.603-3.318-3.028-5.366-4.232c-2.008-1.175-4.134-2.247-6.3-3.177c-2.396-1.038-4.885-2.015-7.393-2.913
			c-2.523-0.899-5.096-1.974-7.653-3.184c-2.805-1.314-4.964-3.009-6.419-5.029c-1.433-1.995-2.163-4.563-2.163-7.635
			c0-2.91,1.095-5.303,3.344-7.325c2.273-2.042,4.95-3.035,8.184-3.035c3.077,0,5.699,0.583,7.797,1.731
			c2.105,1.161,3.927,2.738,5.39,4.695c1.524,2.047,2.783,4.377,3.743,6.921c0.977,2.594,1.866,5.34,2.641,8.164l0.164,0.587h5.77
			l-0.458-26.608h-5.537l-2.022,3.315c-2.156-1.269-4.53-2.401-7.064-3.372c-2.858-1.094-6.131-1.646-9.727-1.646
			c-3.16,0-6.241,0.544-9.15,1.62c-2.918,1.074-5.485,2.58-7.626,4.479c-2.258,2.006-4.023,4.325-5.247,6.888
			c-1.229,2.573-1.854,5.382-1.854,8.359c0,5.155,1.261,9.399,3.744,12.621c2.452,3.187,5.935,5.799,10.336,7.75
			c2.201,0.997,4.847,2.063,7.853,3.172c3.013,1.109,5.676,2.121,8.005,3.035c3.233,1.278,5.7,3.174,7.318,5.627
			c1.628,2.463,2.451,5.148,2.451,7.99c0,1.962-0.264,3.711-0.784,5.191c-0.517,1.46-1.315,2.746-2.371,3.828
			c-1.066,1.078-2.473,1.924-4.19,2.518c-1.749,0.607-3.842,0.914-6.226,0.914c-3.163,0-5.964-0.597-8.333-1.773
			c-2.394-1.189-4.51-2.808-6.298-4.809c-1.907-2.162-3.47-4.521-4.636-7.009c-1.174-2.501-2.216-5.362-3.105-8.507l-0.159-0.581
			h-5.78l0.797,27.406h5.529l2.142-3.59c2.373,1.343,5.168,2.51,8.315,3.476c3.459,1.061,6.979,1.6,10.456,1.6
			c7.553,0,13.975-2.245,19.082-6.672C1137.676,84.117,1140.28,78.377,1140.28,71.509z"/>
		<path fill="#FFFFFF" d="M1166.387,84.96c3.292,3.397,7.113,6.034,11.363,7.834c4.255,1.804,8.762,2.718,13.403,2.718
			c7.138,0,13.395-1.658,18.599-4.928c5.204-3.281,9.431-8.796,12.57-16.382l0.282-0.7l-5.507-2.61l-0.299,0.82
			c-0.834,2.263-1.923,4.384-3.241,6.303c-1.32,1.917-2.865,3.656-4.581,5.15c-1.71,1.42-3.768,2.582-6.112,3.449
			c-2.334,0.867-4.936,1.306-7.73,1.306c-3.713,0-7.123-0.826-10.13-2.452c-3.019-1.643-5.671-3.947-7.883-6.851
			c-2.228-2.963-3.97-6.449-5.17-10.362c-1.208-3.921-1.819-8.302-1.819-13.026c0-5.366,0.587-10.286,1.743-14.627
			c1.153-4.313,2.756-7.907,4.765-10.688c2.1-2.857,4.62-5.048,7.483-6.511c2.867-1.458,6.008-2.198,9.345-2.198
			c2.884,0,5.479,0.652,7.714,1.939c2.253,1.295,4.229,3.124,5.883,5.433c1.485,2.058,2.808,4.613,3.923,7.596
			c1.129,3.008,1.986,5.843,2.552,8.415l0.141,0.625h5.858l-0.516-28.464h-5.533l-2.026,3.321c-2.597-1.497-5.359-2.693-8.208-3.556
			c-3.105-0.936-6.619-1.413-10.437-1.413c-5.141,0-10.042,0.987-14.564,2.935c-4.526,1.946-8.502,4.749-11.827,8.322
			c-3.352,3.603-6.011,7.953-7.9,12.932c-1.891,4.977-2.85,10.589-2.85,16.68c0,6.095,0.98,11.653,2.906,16.532
			C1160.511,77.378,1163.136,81.566,1166.387,84.96z"/>
		<path fill="#FFFFFF" d="M1292.924,85.847c-0.418,0.714-1.064,1.238-2.019,1.617c-0.361,0.168-1.192,0.4-3.095,0.567l-4.466,0.379
			v5.298h33.282v-5.331l-0.764-0.029c-0.83-0.032-2.028-0.206-3.556-0.517c-1.488-0.306-2.512-0.6-3.045-0.882
			c-1.058-0.553-1.77-1.182-2.103-1.875c-0.356-0.738-0.542-1.675-0.542-2.784V27.952c0-1.051,0.193-2.041,0.563-2.935
			c0.32-0.78,0.969-1.327,1.968-1.677c0.695-0.237,1.755-0.494,3.151-0.769c1.42-0.276,2.613-0.432,3.561-0.463l0.767-0.028V16.75
			h-33.282v5.304l0.739,0.052c0.957,0.068,2.113,0.276,3.434,0.615c1.336,0.341,2.473,0.734,3.388,1.172
			c0.988,0.46,1.659,1.059,2.048,1.836c0.406,0.826,0.615,1.75,0.615,2.755v22.043h-34.299V27.952c0-1.056,0.189-2.042,0.563-2.935
			c0.318-0.78,0.965-1.327,1.971-1.677c0.686-0.237,1.747-0.494,3.146-0.769c1.415-0.276,2.611-0.432,3.563-0.463l0.766-0.028V16.75
			h-33.284v5.304l0.74,0.052c0.955,0.068,2.115,0.276,3.436,0.615c1.328,0.339,2.468,0.734,3.389,1.172
			c0.987,0.456,1.651,1.059,2.043,1.834c0.407,0.831,0.616,1.759,0.616,2.757v54.391c0,1.232-0.215,2.23-0.645,2.972
			c-0.418,0.717-1.06,1.238-2.013,1.617c-0.365,0.168-1.2,0.404-3.096,0.567l-4.47,0.379v5.298h33.284v-5.331l-0.761-0.029
			c-0.835-0.032-2.034-0.206-3.562-0.517c-1.486-0.306-2.508-0.6-3.043-0.882c-1.062-0.553-1.765-1.182-2.104-1.875
			c-0.354-0.734-0.538-1.671-0.538-2.784V56.844h34.299v26.031C1293.568,84.107,1293.349,85.105,1292.924,85.847z"/>
		<path fill="#FFFFFF" d="M1400.117,69.917h-5.309l-0.174,0.561c-0.486,1.568-1.629,4.088-3.412,7.486
			c-1.77,3.374-3.474,5.912-5.063,7.549c-0.503,0.528-1.417,0.961-2.718,1.29c-1.413,0.364-2.798,0.616-4.108,0.748
			c-1.291,0.143-2.915,0.213-4.815,0.213h-4.681c-2.939,0-5.222-0.098-6.787-0.285c-1.477-0.181-2.64-0.568-3.454-1.153
			c-0.785-0.567-1.3-1.393-1.573-2.517c-0.307-1.24-0.464-2.979-0.464-5.168V56.844h7.814c2.24,0,4.055,0.207,5.396,0.609
			c1.251,0.375,2.396,1.193,3.399,2.443c0.62,0.771,1.234,2.071,1.83,3.868c0.605,1.828,0.982,3.578,1.119,5.208l0.063,0.731h5.562
			V38.579h-5.537l-0.084,0.702c-0.175,1.47-0.533,3.052-1.069,4.708c-0.528,1.622-1.163,2.927-1.882,3.864
			c-0.878,1.091-1.901,1.876-3.042,2.337c-1.168,0.472-3.106,0.71-5.753,0.71h-7.814V22.533h11.203c1.961,0,3.703,0.036,5.235,0.108
			c1.513,0.067,2.832,0.173,3.917,0.309c1.928,0.256,4.042,1.828,6.284,4.669c2.307,2.931,3.824,5.719,4.511,8.293l0.156,0.591
			h5.443V16.75h-60.671v5.304l0.734,0.052c0.939,0.071,2.214,0.28,3.792,0.622c1.567,0.339,2.82,0.731,3.741,1.169
			c1.067,0.479,1.761,1.085,2.076,1.798c0.351,0.802,0.528,1.737,0.528,2.789v54.181c0,1.166-0.197,2.131-0.584,2.869
			c-0.364,0.686-1.044,1.265-2.024,1.72c-0.256,0.116-1.029,0.363-3.264,0.648c-1.776,0.229-3.194,0.377-4.258,0.448l-0.741,0.046
			v5.312h64.927L1400.117,69.917z"/>
		<g>
			<path fill="#FFFFFF" d="M1505.224,92.404c3.101-0.87,5.924-2.157,8.381-3.824c2.56-1.721,4.666-3.95,6.269-6.626
				c1.608-2.695,2.425-5.907,2.425-9.542c0-3.565-0.782-6.653-2.323-9.176c-1.525-2.499-3.47-4.548-5.769-6.077
				c-2.169-1.53-4.678-2.736-7.459-3.593c-1.687-0.518-3.289-0.925-4.787-1.222c1.56-0.457,3.05-1.009,4.453-1.651
				c2.191-0.998,4.164-2.241,5.863-3.702c1.839-1.556,3.282-3.444,4.292-5.606c1.016-2.168,1.531-4.665,1.531-7.428
				c0-3.183-0.733-5.936-2.173-8.185c-1.428-2.218-3.27-4.005-5.48-5.296c-2.317-1.385-4.796-2.364-7.372-2.91
				c-2.53-0.543-5.218-0.814-7.997-0.814h-36.034v5.298l0.731,0.058c0.859,0.068,1.947,0.242,3.233,0.515
				c1.255,0.271,2.41,0.661,3.438,1.165c1.034,0.485,1.726,1.1,2.054,1.836c0.365,0.817,0.555,1.78,0.555,2.861v54.181
				c0,1.159-0.205,2.109-0.6,2.82c-0.382,0.679-1.056,1.234-1.997,1.652c-0.653,0.291-1.775,0.549-3.338,0.766
				c-1.633,0.233-2.872,0.377-3.721,0.448l-0.73,0.06v5.298h36.951C1498.903,93.708,1502.134,93.271,1505.224,92.404z
				 M1502.742,41.208c-0.484,1.681-1.361,3.265-2.601,4.7c-1.195,1.378-2.789,2.428-4.741,3.125
				c-1.999,0.71-4.447,1.072-7.277,1.072h-6.018V22.668l3.6-0.107c1.73-0.055,3.157-0.08,4.299-0.08
				c4.696,0,8.148,1.11,10.271,3.297c2.131,2.196,3.212,5.291,3.212,9.209C1503.488,37.384,1503.235,39.475,1502.742,41.208z
				 M1482.105,56.177c0.723-0.03,1.648-0.062,2.78-0.101c1.57-0.055,3.497-0.078,5.786-0.078c5.392,0,9.578,1.375,12.445,4.084
				c2.894,2.733,4.299,6.139,4.299,10.417c0,5.749-1.359,10.143-4.04,13.059c-2.664,2.894-6.593,4.364-11.683,4.364
				c-3.101,0-5.529-0.531-7.218-1.58c-1.597-0.983-2.369-2.417-2.369-4.373V56.177z"/>
			<path fill="#FFFFFF" d="M1603.196,69.917h-5.311l-0.175,0.561c-0.486,1.568-1.632,4.088-3.411,7.486
				c-1.767,3.374-3.475,5.912-5.065,7.549c-0.502,0.528-1.417,0.961-2.714,1.29c-1.416,0.364-2.798,0.616-4.11,0.748
				c-1.295,0.143-2.912,0.213-4.813,0.213h-4.682c-2.942,0-5.224-0.098-6.79-0.285c-1.476-0.181-2.639-0.568-3.454-1.153
				c-0.783-0.567-1.299-1.393-1.574-2.517c-0.307-1.24-0.463-2.979-0.463-5.168V56.844h7.813c2.241,0,4.055,0.207,5.398,0.609
				c1.25,0.375,2.392,1.193,3.399,2.443c0.618,0.774,1.234,2.075,1.83,3.868c0.606,1.828,0.98,3.578,1.117,5.208l0.063,0.731h5.561
				V38.579h-5.541l-0.079,0.702c-0.174,1.47-0.534,3.052-1.071,4.708c-0.528,1.622-1.16,2.927-1.877,3.864
				c-0.879,1.091-1.905,1.876-3.041,2.337c-1.173,0.472-3.109,0.71-5.758,0.71h-7.813V22.533h11.205c1.96,0,3.704,0.036,5.235,0.108
				c1.514,0.067,2.828,0.173,3.912,0.309c1.932,0.256,4.047,1.828,6.285,4.669c2.309,2.931,3.825,5.719,4.516,8.293l0.152,0.591
				h5.441V16.75h-60.666v5.304l0.735,0.052c0.935,0.071,2.208,0.28,3.791,0.622c1.565,0.339,2.817,0.731,3.743,1.169
				c1.062,0.479,1.76,1.085,2.071,1.798c0.354,0.802,0.53,1.737,0.53,2.789v54.181c0,1.166-0.199,2.131-0.583,2.869
				c-0.365,0.686-1.045,1.265-2.021,1.72c-0.263,0.116-1.034,0.363-3.269,0.648c-1.774,0.229-3.195,0.377-4.252,0.448l-0.744,0.046
				v5.312h64.923L1603.196,69.917z"/>
			<path fill="#FFFFFF" d="M1620.698,38.202c0.312-1.114,0.877-2.564,1.68-4.314c0.806-1.745,1.745-3.414,2.79-4.958
				c1.037-1.537,2.188-2.934,3.426-4.156c1.134-1.123,2.219-1.754,3.219-1.875c1.473-0.174,3.048-0.286,4.666-0.337
				c1.64-0.055,3.01-0.08,4.121-0.08h2.322v59.97c0,1.287-0.238,2.311-0.703,3.05c-0.475,0.732-1.205,1.282-2.24,1.681
				c-0.495,0.201-1.604,0.492-4.06,0.741c-2.056,0.214-3.58,0.357-4.579,0.428l-0.738,0.054v5.304h37.643v-5.336l-0.771-0.024
				c-1.083-0.032-2.656-0.258-4.68-0.675c-2.017-0.418-3.346-0.744-3.914-0.963c-1.091-0.459-1.825-1.077-2.24-1.89
				c-0.449-0.869-0.666-1.804-0.666-2.852V22.481h2.332c1.43,0,2.983,0.037,4.66,0.107c1.657,0.067,3.048,0.171,4.119,0.306
				c1.02,0.152,2.116,0.788,3.269,1.889c1.229,1.176,2.375,2.567,3.417,4.143c1.013,1.511,1.946,3.148,2.773,4.868
				c0.823,1.701,1.396,3.178,1.702,4.392l0.15,0.601h5.128V16.75h-68.151v22.038h5.168L1620.698,38.202z"/>
			<path fill="#FFFFFF" d="M1711.185,87.008c-1.89-0.654-2.853-1.505-2.853-2.542c0-0.552,0.087-1.287,0.258-2.19
				c0.173-0.92,0.491-2.142,0.946-3.618c0.5-1.555,1.066-3.252,1.691-5.088c0.576-1.688,1.324-3.686,2.235-5.942h25.712
				l6.142,16.393c0.121,0.299,0.209,0.653,0.271,1.044c0.064,0.416,0.097,0.767,0.097,1.048c0,0.198-0.462,0.702-2.194,1.203
				c-1.783,0.512-4.07,0.862-6.799,1.035l-0.744,0.046v5.312h33.327v-5.331l-0.765-0.029c-0.837-0.032-1.905-0.212-3.172-0.537
				c-1.247-0.318-2.26-0.705-2.981-1.14c-1.141-0.759-2.036-1.543-2.672-2.328c-0.628-0.787-1.203-1.84-1.709-3.142l-25.45-65.01
				l-0.198-0.507h-5.387l-0.198,0.504c-3.627,9.207-7.752,19.707-12.379,31.498c-4.577,11.663-8.845,22.384-12.694,31.859
				c-0.723,1.763-1.464,3.162-2.209,4.151c-0.735,0.965-1.792,1.915-3.134,2.808c-0.812,0.517-1.89,0.938-3.202,1.252
				c-1.339,0.324-2.473,0.525-3.373,0.594l-0.732,0.058v5.3h30.344v-5.32l-0.754-0.04
				C1715.855,88.211,1713.36,87.759,1711.185,87.008z M1715.961,61.312l10.239-26.278l10.392,26.278H1715.961z"/>
			<path fill="#FFFFFF" d="M1793.601,87.008c-1.896-0.654-2.854-1.505-2.854-2.542c0-0.552,0.087-1.287,0.257-2.19
				c0.175-0.92,0.491-2.142,0.946-3.618c0.5-1.555,1.063-3.252,1.691-5.088c0.577-1.688,1.327-3.686,2.236-5.942h25.712
				l6.141,16.393c0.116,0.299,0.209,0.653,0.273,1.044c0.065,0.416,0.098,0.767,0.098,1.048c0,0.198-0.462,0.702-2.197,1.203
				c-1.781,0.512-4.071,0.862-6.798,1.035l-0.747,0.046v5.312h33.331v-5.331l-0.764-0.029c-0.842-0.032-1.904-0.212-3.173-0.537
				c-1.247-0.318-2.262-0.705-2.981-1.14c-1.142-0.758-2.042-1.543-2.674-2.328c-0.625-0.787-1.201-1.84-1.707-3.142l-25.453-65.01
				l-0.197-0.507h-5.39l-0.2,0.504c-3.622,9.207-7.745,19.707-12.373,31.498c-4.576,11.658-8.846,22.376-12.693,31.859
				c-0.723,1.763-1.467,3.162-2.213,4.151c-0.733,0.965-1.79,1.915-3.129,2.808c-0.813,0.517-1.891,0.938-3.202,1.252
				c-1.341,0.324-2.478,0.525-3.374,0.594l-0.731,0.058v5.3h30.345v-5.32l-0.754-0.04
				C1798.272,88.211,1795.778,87.759,1793.601,87.008z M1798.375,61.312l10.242-26.278l10.392,26.278H1798.375z"/>
			<path fill="#FFFFFF" d="M1924.269,69.707h-5.242l-0.195,0.524c-0.717,1.982-2.062,4.645-3.983,7.906
				c-1.983,3.342-3.639,5.726-5.062,7.292c-0.405,0.458-1.078,0.855-2.007,1.183c-1.007,0.355-2.13,0.639-3.334,0.838
				c-1.234,0.208-2.583,0.35-3.997,0.418c-1.416,0.072-2.785,0.106-4.104,0.106c-2.908,0-5.183-0.097-6.767-0.285
				c-1.474-0.175-2.583-0.541-3.271-1.078c-0.724-0.586-1.167-1.409-1.362-2.524c-0.229-1.262-0.346-3.045-0.346-5.304V28.166
				c0-1.06,0.205-2.055,0.618-2.974c0.356-0.825,1.022-1.396,2.03-1.748c0.674-0.229,1.802-0.509,3.361-0.819
				c1.546-0.31,2.813-0.484,3.777-0.516l0.768-0.028V16.75h-33.826v5.304l0.738,0.052c0.911,0.068,2.101,0.3,3.531,0.692
				c1.428,0.39,2.543,0.79,3.352,1.203c1.034,0.482,1.726,1.094,2.054,1.835c0.366,0.813,0.552,1.776,0.552,2.862v53.966
				c0,1.238-0.208,2.252-0.634,3.016c-0.396,0.731-1.036,1.278-1.96,1.669c-0.39,0.173-1.261,0.419-3.182,0.629
				c-1.625,0.176-2.867,0.3-3.719,0.371l-0.732,0.06v5.298h61.213L1924.269,69.707z"/>
		</g>
		<path fill="#FFFFFF" d="M358.372,176.802l0.637,0.133c2.862,0.586,5.144,1.209,6.778,1.847c1.999,0.791,1.999,1.659,1.999,1.946
			c0,2.432-0.647,5.313-1.927,8.547c-1.188,3.012-2.845,6.25-4.932,9.643c-2.809-3.351-5.7-6.75-8.607-10.083
			c-3.016-3.454-6.14-7.326-9.296-11.502c4.36-2.372,7.866-5.06,10.436-8.013c2.78-3.194,4.189-7.063,4.189-11.483
			c0-1.861-0.353-3.743-1.046-5.592c-0.703-1.86-1.724-3.528-3.045-4.941c-1.442-1.53-3.318-2.783-5.572-3.72
			c-2.249-0.94-4.897-1.414-7.866-1.414c-2.523,0-5.035,0.405-7.459,1.206c-2.446,0.801-4.564,1.946-6.294,3.381
			c-1.87,1.594-3.337,3.477-4.366,5.605c-1.036,2.126-1.561,4.506-1.561,7.065c0,3.565,0.852,6.824,2.528,9.691
			c1.515,2.601,3.638,5.703,6.308,9.218c-6.092,3.876-10.351,7.616-12.663,11.12c-2.424,3.669-3.655,7.832-3.655,12.357
			c0,3.645,0.679,6.846,2.026,9.494c1.339,2.649,3.115,4.849,5.279,6.541c2.218,1.715,4.714,2.986,7.418,3.768
			c2.671,0.777,5.41,1.176,8.133,1.176c2.624,0,4.945-0.319,6.89-0.939c1.928-0.613,3.87-1.481,5.784-2.575
			c1.714-0.995,3.376-2.225,4.944-3.625c1.291-1.158,2.472-2.288,3.51-3.366l7.678,8.646h23.32v-5.328l-0.764-0.036
			c-1.605-0.056-3.739-0.376-6.341-0.936c-2.542-0.542-4.515-1.212-5.855-1.971c-1.418-0.859-3.162-2.273-5.182-4.22
			c-1.853-1.785-3.464-3.466-4.792-5.006c1.605-2.063,2.941-4.148,3.978-6.205c1.112-2.196,2.205-4.433,3.286-6.708
			c1.074-2.275,1.998-4.237,2.766-5.898c0.739-1.598,1.468-2.804,2.184-3.607c1.042-1.286,2.576-2.248,4.56-2.852
			c2.094-0.634,4.193-1.045,6.243-1.215l0.727-0.063v-5.299h-30.377V176.802z M339.732,172.892
			c-2.463-3.244-4.323-6.062-5.522-8.382c-1.231-2.373-1.851-4.741-1.851-7.047c0-0.803,0.151-1.751,0.454-2.812
			c0.294-1.039,0.777-2.026,1.42-2.923c0.725-0.939,1.61-1.735,2.626-2.352c0.977-0.589,2.245-0.89,3.771-0.89
			c2.748,0,4.796,0.852,6.257,2.608c1.481,1.77,2.228,4.4,2.228,7.803c0,3.015-0.773,5.679-2.299,7.913
			C345.354,168.964,342.974,171.008,339.732,172.892z M327.363,188.996c1.051-2.335,2.816-4.416,5.259-6.211
			c2.474,3.341,5.7,7.381,9.605,12.02c3.988,4.756,7.642,9.205,10.865,13.228c-1.466,1.772-3.324,3.151-5.521,4.129
			c-2.417,1.066-4.905,1.602-7.399,1.602c-4.405,0-7.957-1.505-10.568-4.477c-2.635-3.004-3.971-6.861-3.971-11.457
			C325.633,194.526,326.218,191.555,327.363,188.996z"/>
		<path fill="#FFFFFF" d="M500.73,149.275l0.733,0.055c3.62,0.276,6.248,0.803,7.809,1.57c2.055,1.01,2.055,1.993,2.055,2.314
			c0,0.81-0.104,1.806-0.31,2.97c-0.213,1.212-0.752,3.473-1.603,6.715c-1.226,4.686-2.783,10.361-4.638,16.878
			c-1.696,5.962-3.689,12.838-5.977,20.632l-18.609-55.374h-6.407l-18.421,54.169c-3.773-13.13-6.654-23.079-8.627-29.858
			c-2.127-7.305-3.56-12.353-4.363-15.387c-0.072-0.354-0.163-0.815-0.267-1.392c-0.096-0.523-0.146-0.951-0.146-1.265
			c0-0.459,0.834-0.902,2.239-1.188c1.873-0.381,4.179-0.646,6.849-0.786l0.755-0.041v-5.32h-32.712v5.299l0.733,0.063
			c0.921,0.07,1.971,0.251,3.119,0.538c1.133,0.286,2.08,0.694,2.907,1.248c0.988,0.643,1.78,1.372,2.353,2.141
			c0.569,0.774,1.008,1.673,1.302,2.674l7.64,26.79c3.8,13.334,7.479,26.196,11.031,38.593l0.165,0.581h5.918l19.455-56.374
			l18.535,55.82l0.179,0.554h6.116l0.173-0.562c3.912-12.361,7.55-23.998,10.926-34.928c3.373-10.922,6.331-20.474,8.874-28.653
			c0.546-1.71,1.184-3.054,1.896-3.98c0.708-0.925,1.655-1.764,2.815-2.475c0.939-0.564,1.987-1.032,3.112-1.389
			c1.108-0.347,2.089-0.542,2.914-0.578l0.764-0.027v-5.334H500.73V149.275z"/>
		<path fill="#FFFFFF" d="M544.944,149.275l0.74,0.055c1.02,0.07,2.327,0.293,3.885,0.649c1.598,0.367,2.925,0.757,3.955,1.162
			c1.245,0.484,2.063,1.069,2.365,1.697c0.341,0.719,0.515,1.651,0.515,2.768v54.603c0,1.247-0.228,2.216-0.673,2.873
			c-0.442,0.662-1.185,1.192-2.205,1.583c-0.672,0.259-1.899,0.455-3.649,0.595l-4.933,0.374v5.301h35.973v-5.336l-0.769-0.027
			c-1.138-0.034-2.552-0.216-4.206-0.544c-1.639-0.32-2.841-0.622-3.527-0.877c-1.104-0.469-1.854-1.06-2.285-1.819
			c-0.447-0.776-0.673-1.69-0.673-2.706v-54.55c0-1.042,0.206-1.993,0.617-2.843c0.371-0.756,1.11-1.295,2.266-1.654
			c1.102-0.338,2.421-0.626,3.916-0.849c1.522-0.23,2.833-0.359,3.893-0.397l0.768-0.021v-5.341h-35.973V149.275z"/>
		<path fill="#FFFFFF" d="M651.673,185.018c-1.503-1.599-3.308-3.02-5.363-4.235c-2.02-1.184-4.141-2.25-6.304-3.172
			c-2.438-1.056-4.929-2.038-7.396-2.921c-2.467-0.875-5.043-1.95-7.649-3.18c-2.811-1.324-4.971-3.011-6.419-5.034
			c-1.437-1.993-2.166-4.56-2.166-7.633c0-2.908,1.096-5.304,3.343-7.323c2.275-2.04,4.951-3.033,8.185-3.033
			c3.082,0,5.704,0.586,7.794,1.734c2.111,1.152,3.925,2.736,5.393,4.685c1.524,2.05,2.784,4.379,3.743,6.927
			c0.977,2.588,1.865,5.334,2.643,8.162l0.159,0.583h5.773l-0.456-26.608h-5.535l-2.024,3.327c-2.159-1.277-4.531-2.406-7.066-3.376
			c-2.851-1.095-6.122-1.644-9.724-1.644c-3.168,0-6.247,0.542-9.156,1.615c-2.918,1.076-5.487,2.58-7.624,4.477
			c-2.258,2.009-4.023,4.322-5.247,6.888c-1.228,2.574-1.853,5.391-1.853,8.365c0,5.149,1.26,9.392,3.742,12.619
			c2.463,3.191,5.943,5.799,10.338,7.752c2.188,0.986,4.83,2.055,7.851,3.165c3.009,1.115,5.677,2.119,8.005,3.042
			c3.235,1.274,5.699,3.171,7.319,5.619c1.63,2.468,2.453,5.161,2.453,7.998c0,1.959-0.263,3.708-0.787,5.186
			c-0.517,1.459-1.313,2.755-2.374,3.829c-1.052,1.073-2.46,1.923-4.185,2.518c-1.75,0.614-3.845,0.914-6.224,0.914
			c-3.157,0-5.964-0.592-8.337-1.773c-2.4-1.19-4.52-2.815-6.295-4.81c-1.911-2.156-3.473-4.519-4.637-7
			c-1.174-2.517-2.22-5.383-3.104-8.521l-0.163-0.579h-5.781l0.8,27.409h5.527l2.144-3.592c2.375,1.349,5.166,2.511,8.311,3.475
			c3.466,1.066,6.984,1.603,10.458,1.603c7.549,0,13.971-2.238,19.086-6.672c5.143-4.457,7.75-10.203,7.75-17.07
			c0-2.874-0.404-5.438-1.207-7.628C654.617,188.909,653.36,186.865,651.673,185.018z"/>
		<path fill="#FFFFFF" d="M727.384,185.018c-1.504-1.599-3.308-3.02-5.368-4.235c-2.015-1.184-4.138-2.25-6.3-3.172
			c-2.438-1.056-4.93-2.038-7.395-2.921c-2.47-0.875-5.044-1.95-7.652-3.18c-2.81-1.324-4.967-3.011-6.417-5.034
			c-1.437-1.993-2.165-4.56-2.165-7.633c0-2.908,1.096-5.304,3.343-7.323c2.275-2.04,4.951-3.033,8.184-3.033
			c3.082,0,5.704,0.586,7.794,1.734c2.111,1.152,3.927,2.736,5.394,4.685c1.526,2.05,2.785,4.379,3.742,6.927
			c0.976,2.588,1.864,5.334,2.642,8.162l0.162,0.583h5.771l-0.457-26.608h-5.535l-2.022,3.327c-2.159-1.277-4.531-2.406-7.066-3.376
			c-2.852-1.095-6.124-1.644-9.723-1.644c-3.17,0-6.248,0.542-9.157,1.615c-2.918,1.076-5.486,2.58-7.624,4.477
			c-2.257,2.009-4.022,4.322-5.248,6.888c-1.227,2.574-1.853,5.391-1.853,8.365c0,5.149,1.26,9.392,3.744,12.619
			c2.462,3.191,5.941,5.799,10.337,7.752c2.188,0.986,4.83,2.055,7.851,3.165c3.009,1.115,5.677,2.119,8.005,3.042
			c3.236,1.274,5.701,3.171,7.32,5.619c1.629,2.468,2.453,5.161,2.453,7.998c0,1.959-0.265,3.708-0.787,5.186
			c-0.516,1.459-1.314,2.755-2.373,3.829c-1.052,1.073-2.459,1.923-4.188,2.518c-1.748,0.614-3.844,0.914-6.224,0.914
			c-3.157,0-5.961-0.592-8.335-1.773c-2.398-1.19-4.52-2.815-6.295-4.81c-1.912-2.156-3.473-4.519-4.635-7
			c-1.177-2.517-2.221-5.383-3.105-8.521l-0.164-0.579h-5.78l0.805,27.409h5.524l2.144-3.592c2.376,1.349,5.166,2.511,8.312,3.475
			c3.467,1.066,6.986,1.603,10.458,1.603c7.55,0,13.969-2.238,19.085-6.672c5.145-4.457,7.751-10.203,7.751-17.07
			c0-2.874-0.404-5.438-1.207-7.628C730.327,188.909,729.071,186.865,727.384,185.018z"/>
		<path fill="#FFFFFF" d="M814.559,197.698c-0.485,1.584-1.636,4.095-3.414,7.497c-1.762,3.361-3.468,5.891-5.063,7.544
			c-0.503,0.522-1.415,0.954-2.717,1.296c-1.397,0.355-2.78,0.606-4.111,0.747c-1.272,0.14-2.894,0.209-4.813,0.209h-4.681
			c-2.912,0-5.198-0.106-6.791-0.286c-1.473-0.176-2.631-0.567-3.452-1.16c-0.783-0.554-1.294-1.384-1.573-2.516
			c-0.306-1.24-0.463-2.976-0.463-5.158v-21.8h7.815c2.251,0,4.062,0.207,5.395,0.611c1.249,0.37,2.391,1.191,3.399,2.441
			c0.619,0.773,1.232,2.074,1.83,3.863c0.607,1.826,0.983,3.575,1.121,5.214l0.06,0.725h5.561V165.8h-5.536l-0.081,0.704
			c-0.177,1.464-0.537,3.046-1.074,4.713c-0.525,1.623-1.162,2.929-1.876,3.856c-0.886,1.103-1.911,1.884-3.044,2.336
			c-1.169,0.473-3.106,0.717-5.753,0.717h-7.815v-28.363h11.204c1.958,0,3.703,0.035,5.238,0.105
			c1.51,0.064,2.831,0.175,3.911,0.308c1.934,0.258,4.046,1.826,6.286,4.67c2.305,2.928,3.827,5.716,4.512,8.29l0.157,0.588h5.443
			v-19.755H753.56v5.299l0.735,0.063c0.944,0.07,2.224,0.28,3.796,0.62c1.553,0.341,2.808,0.738,3.741,1.18
			c1.063,0.474,1.76,1.08,2.07,1.786c0.352,0.808,0.529,1.749,0.529,2.796v54.176c0,1.177-0.196,2.138-0.583,2.865
			c-0.359,0.689-1.041,1.269-2.023,1.73c-0.313,0.138-1.131,0.367-3.264,0.641c-1.862,0.238-3.254,0.39-4.254,0.446l-0.746,0.057
			v5.307h64.928l1.554-23.791h-5.31L814.559,197.698z"/>
		<path fill="#FFFFFF" d="M897.601,197.455c-0.737,1.994-2.082,4.658-4,7.913c-1.929,3.257-3.63,5.704-5.056,7.288
			c-0.41,0.468-1.082,0.863-2.004,1.184c-1.009,0.355-2.133,0.636-3.334,0.845c-1.276,0.2-2.623,0.348-4,0.412
			c-1.422,0.07-2.792,0.104-4.108,0.104c-2.877,0-5.156-0.097-6.765-0.289c-1.479-0.173-2.586-0.536-3.274-1.072
			c-0.715-0.59-1.165-1.416-1.363-2.532c-0.225-1.226-0.337-3.011-0.337-5.298v-50.622c0-1.063,0.201-2.034,0.606-2.977
			c0.358-0.818,1.023-1.39,2.032-1.735c0.699-0.244,1.831-0.516,3.367-0.825c1.561-0.31,2.83-0.484,3.774-0.522l0.77-0.027v-5.334
			h-33.826v5.307l0.733,0.055c0.937,0.07,2.125,0.307,3.542,0.698c1.423,0.384,2.539,0.781,3.343,1.199
			c1.036,0.477,1.729,1.101,2.055,1.835c0.365,0.818,0.552,1.773,0.552,2.861v53.964c0,1.24-0.21,2.259-0.629,3.019
			c-0.401,0.731-1.041,1.275-1.965,1.673c-0.39,0.173-1.258,0.423-3.179,0.629c-1.625,0.181-2.864,0.299-3.719,0.361l-0.733,0.063
			v5.301h61.209l1.73-24.002h-5.232L897.601,197.455z"/>
		<path fill="#FFFFFF" d="M1009.385,215.083c-1.567-0.29-2.644-0.596-3.217-0.902c-1.066-0.558-1.784-1.197-2.134-1.894
			c-0.371-0.728-0.56-1.662-0.56-2.769v-54.343c0-1.054,0.196-2.037,0.58-2.917c0.338-0.788,0.996-1.341,2.006-1.689
			c0.679-0.233,1.787-0.499,3.294-0.771c1.533-0.273,2.79-0.429,3.739-0.468l0.763-0.027v-5.334h-26.443l-0.043,0.754
			c-0.024,0.397-0.17,1.352-0.753,3.645c-0.479,1.876-1.06,3.678-1.719,5.355l-17.923,45.433l-21.137-54.677l-0.194-0.51h-27.376
			v5.327l0.758,0.035c1.51,0.07,3.058,0.332,4.606,0.775c1.494,0.426,2.769,1.085,3.783,1.951c0.897,0.792,1.599,1.849,2.092,3.137
			c0.502,1.313,0.757,3.059,0.757,5.188v38.559c0,4.741-0.229,8.145-0.679,10.137c-0.423,1.862-1.199,3.251-2.303,4.122
			c-0.868,0.695-2.143,1.231-3.786,1.594c-1.751,0.381-3.429,0.646-4.989,0.776l-0.725,0.068v5.295h32.421v-5.323l-0.755-0.041
			c-0.477-0.021-1.674-0.223-4.675-1.031c-2.909-0.79-4.084-1.485-4.583-1.959c-1.017-0.881-1.79-2.385-2.299-4.477
			c-0.542-2.183-0.816-5.46-0.816-9.741v-42.486l23.969,63.318l0.192,0.516h3.773l25.52-62.918v52.727
			c0,1.154-0.225,2.124-0.669,2.858c-0.447,0.747-1.178,1.434-2.146,2.02c-0.423,0.23-1.403,0.558-3.662,0.811
			c-1.889,0.202-3.449,0.327-4.644,0.361l-0.771,0.027v5.336h35.33v-5.328l-0.767-0.036
			C1012.276,215.535,1010.988,215.375,1009.385,215.083z"/>
		<path fill="#FFFFFF" d="M1105.381,215.038c-1.249-0.32-2.265-0.71-2.982-1.143c-1.141-0.759-2.045-1.539-2.68-2.327
			c-0.621-0.78-1.196-1.824-1.706-3.138l-25.448-65.015l-0.196-0.505h-5.392l-0.196,0.502c-3.626,9.207-7.749,19.705-12.376,31.5
			c-4.576,11.669-8.848,22.382-12.697,31.866c-0.716,1.749-1.457,3.151-2.209,4.148c-0.731,0.97-1.791,1.912-3.129,2.81
			c-0.82,0.517-1.899,0.934-3.204,1.256c-1.361,0.322-2.497,0.522-3.37,0.579l-0.736,0.063v5.301h30.346v-5.323l-0.756-0.041
			c-2.749-0.13-5.243-0.586-7.418-1.332c-1.896-0.663-2.855-1.513-2.855-2.54c0-0.555,0.089-1.295,0.257-2.194
			c0.172-0.922,0.489-2.142,0.942-3.621c0.503-1.553,1.068-3.248,1.693-5.088c0.582-1.702,1.332-3.695,2.237-5.941h25.712
			l6.136,16.392c0.124,0.3,0.215,0.655,0.274,1.042c0.068,0.422,0.095,0.765,0.095,1.057c0,0.188-0.455,0.69-2.19,1.199
			c-1.782,0.512-4.071,0.858-6.799,1.025l-0.746,0.057v5.307h33.329v-5.328l-0.759-0.036
			C1107.709,215.535,1106.646,215.362,1105.381,215.038z M1076.632,188.538H1056l10.241-26.28L1076.632,188.538z"/>
		<path fill="#FFFFFF" d="M1193.194,215.038c-1.251-0.32-2.26-0.71-2.983-1.143c-1.141-0.759-2.041-1.539-2.676-2.327
			c-0.621-0.78-1.195-1.824-1.706-3.138l-25.45-65.015l-0.199-0.505h-5.39l-0.199,0.502c-3.621,9.207-7.749,19.705-12.375,31.5
			c-4.576,11.669-8.846,22.382-12.694,31.866c-0.718,1.749-1.464,3.151-2.21,4.148c-0.735,0.97-1.791,1.912-3.131,2.81
			c-0.82,0.517-1.899,0.934-3.205,1.256c-1.364,0.322-2.496,0.522-3.368,0.579l-0.737,0.063v5.301h30.344v-5.323l-0.754-0.041
			c-2.749-0.13-5.242-0.586-7.419-1.332c-1.899-0.663-2.857-1.513-2.857-2.54c0-0.555,0.087-1.295,0.258-2.194
			c0.17-0.922,0.492-2.142,0.945-3.621c0.499-1.553,1.067-3.248,1.692-5.088c0.579-1.702,1.332-3.695,2.235-5.941h25.712
			l6.141,16.392c0.121,0.3,0.211,0.655,0.271,1.042c0.064,0.422,0.098,0.765,0.098,1.057c0,0.188-0.46,0.69-2.189,1.199
			c-1.787,0.512-4.073,0.858-6.802,1.025l-0.747,0.057v5.307h33.329v-5.328l-0.762-0.036
			C1195.525,215.535,1194.46,215.362,1193.194,215.038z M1164.448,188.538h-20.634l10.24-26.28L1164.448,188.538z"/>
		<path fill="#FFFFFF" d="M1207.703,166.011h5.167l0.16-0.58c0.311-1.116,0.876-2.566,1.679-4.318
			c0.802-1.742,1.742-3.408,2.791-4.959c1.032-1.531,2.182-2.931,3.422-4.156c1.137-1.118,2.222-1.746,3.224-1.871
			c1.423-0.17,2.995-0.288,4.663-0.344c1.641-0.048,3.012-0.077,4.117-0.077h2.327v59.971c0,1.283-0.24,2.307-0.706,3.047
			c-0.466,0.716-1.219,1.283-2.246,1.686c-0.694,0.279-2.06,0.537-4.054,0.748c-2.052,0.203-3.575,0.349-4.574,0.411l-0.742,0.057
			v5.307h37.643v-5.336l-0.771-0.027c-1.1-0.034-2.677-0.257-4.68-0.671c-2.026-0.416-3.352-0.75-3.917-0.969
			c-1.087-0.458-1.82-1.07-2.234-1.882c-0.452-0.87-0.668-1.804-0.668-2.851v-59.49h2.329c1.434,0,2.984,0.035,4.662,0.105
			c1.703,0.071,3.056,0.182,4.125,0.315c1.012,0.147,2.107,0.777,3.262,1.875c1.224,1.182,2.372,2.572,3.419,4.152
			c1.015,1.516,1.947,3.155,2.773,4.87c0.818,1.688,1.391,3.166,1.7,4.387l0.152,0.602h5.129v-22.042h-68.152V166.011z"/>
		<path fill="#FFFFFF" d="M1343.111,185.018c-1.503-1.599-3.307-3.02-5.363-4.235c-2.018-1.184-4.142-2.25-6.307-3.172
			c-2.435-1.056-4.924-2.038-7.392-2.921c-2.47-0.875-5.041-1.95-7.651-3.18c-2.81-1.324-4.972-3.011-6.42-5.034
			c-1.433-1.993-2.161-4.56-2.161-7.633c0-2.908,1.094-5.304,3.343-7.323c2.273-2.04,4.949-3.033,8.182-3.033
			c3.084,0,5.704,0.586,7.793,1.734c2.112,1.152,3.931,2.736,5.394,4.685c1.529,2.05,2.785,4.379,3.745,6.927
			c0.975,2.588,1.864,5.334,2.642,8.162l0.158,0.583h5.774l-0.456-26.608h-5.535l-2.025,3.327c-2.156-1.277-4.528-2.406-7.065-3.376
			c-2.85-1.095-6.122-1.644-9.727-1.644c-3.166,0-6.245,0.542-9.152,1.615c-2.92,1.076-5.486,2.58-7.625,4.477
			c-2.256,2.009-4.021,4.322-5.248,6.888c-1.226,2.574-1.851,5.391-1.851,8.365c0,5.149,1.259,9.392,3.743,12.619
			c2.46,3.191,5.941,5.799,10.335,7.752c2.19,0.986,4.83,2.055,7.852,3.165c3.009,1.115,5.675,2.119,8.006,3.042
			c3.232,1.274,5.7,3.171,7.32,5.619c1.627,2.468,2.449,5.161,2.449,7.998c0,1.959-0.263,3.708-0.787,5.186
			c-0.514,1.459-1.312,2.755-2.373,3.829c-1.049,1.073-2.459,1.923-4.186,2.518c-1.748,0.614-3.846,0.914-6.225,0.914
			c-3.158,0-5.959-0.592-8.336-1.773c-2.397-1.19-4.519-2.815-6.296-4.81c-1.91-2.156-3.472-4.519-4.635-7
			c-1.176-2.517-2.219-5.383-3.104-8.521l-0.16-0.579h-5.787l0.802,27.409h5.528l2.147-3.592c2.374,1.349,5.165,2.511,8.312,3.475
			c3.466,1.066,6.986,1.603,10.456,1.603c7.549,0,13.973-2.238,19.083-6.672c5.146-4.457,7.753-10.203,7.753-17.07
			c0-2.874-0.407-5.438-1.206-7.628C1346.058,188.909,1344.8,186.865,1343.111,185.018z"/>
		<path fill="#FFFFFF" d="M1429.979,198.94c-0.836,2.266-1.928,4.383-3.243,6.303c-1.316,1.919-2.86,3.661-4.583,5.146
			c-1.705,1.421-3.762,2.58-6.11,3.458c-2.339,0.865-4.941,1.306-7.728,1.306c-3.719,0-7.123-0.833-10.13-2.456
			c-3.025-1.645-5.682-3.954-7.882-6.855c-2.23-2.963-3.972-6.45-5.173-10.358c-1.207-3.922-1.817-8.306-1.817-13.027
			c0-5.361,0.587-10.284,1.744-14.631c1.147-4.312,2.751-7.903,4.761-10.68c2.107-2.869,4.625-5.062,7.486-6.513
			c2.868-1.462,6.014-2.202,9.34-2.202c2.889,0,5.483,0.653,7.717,1.941c2.257,1.302,4.234,3.13,5.881,5.434
			c1.49,2.063,2.812,4.615,3.925,7.588c1.135,3.026,1.993,5.861,2.553,8.421l0.137,0.625h5.862l-0.517-28.471h-5.528l-2.029,3.335
			c-2.607-1.508-5.366-2.699-8.21-3.559c-3.102-0.941-6.61-1.42-10.44-1.42c-5.14,0-10.041,0.989-14.562,2.935
			c-4.525,1.947-8.497,4.746-11.826,8.321c-3.357,3.607-6.01,7.958-7.899,12.939c-1.892,4.969-2.85,10.588-2.85,16.683
			c0,6.086,0.978,11.643,2.905,16.524c1.927,4.876,4.554,9.064,7.802,12.461c3.294,3.395,7.116,6.03,11.361,7.828
			c4.261,1.816,8.771,2.727,13.405,2.727c7.145,0,13.4-1.659,18.598-4.935c5.208-3.279,9.437-8.788,12.57-16.378l0.286-0.705
			l-5.504-2.608L1429.979,198.94z"/>
		<path fill="#FFFFFF" d="M1501.925,149.275l0.738,0.055c0.968,0.07,2.12,0.28,3.437,0.616c1.325,0.345,2.46,0.735,3.39,1.177
			c0.97,0.445,1.658,1.06,2.042,1.834c0.416,0.837,0.616,1.735,0.616,2.755v22.039h-34.295v-22.575c0-1.062,0.189-2.04,0.56-2.931
			c0.318-0.781,0.965-1.328,1.971-1.676c0.681-0.233,1.735-0.499,3.144-0.771c1.419-0.273,2.62-0.429,3.565-0.468l0.768-0.027
			v-5.334h-33.285v5.307l0.736,0.055c0.961,0.07,2.122,0.28,3.44,0.616c1.315,0.337,2.452,0.735,3.391,1.177
			c0.967,0.445,1.653,1.06,2.039,1.828c0.417,0.849,0.617,1.748,0.617,2.761v54.391c0,1.227-0.215,2.226-0.646,2.971
			c-0.418,0.716-1.059,1.24-2.014,1.617c-0.355,0.165-1.185,0.406-3.093,0.568l-4.471,0.374v5.301h33.285v-5.328l-0.76-0.036
			c-0.88-0.034-2.075-0.208-3.563-0.509c-1.844-0.386-2.674-0.685-3.043-0.879c-1.062-0.558-1.766-1.19-2.105-1.881
			c-0.354-0.732-0.536-1.667-0.536-2.781v-25.448h34.295v26.032c0,1.227-0.215,2.226-0.646,2.971
			c-0.414,0.716-1.055,1.24-2.019,1.617c-0.353,0.165-1.175,0.398-3.088,0.568l-4.47,0.374v5.301h33.283v-5.328l-0.761-0.036
			c-0.875-0.034-2.071-0.208-3.562-0.509c-1.846-0.386-2.675-0.685-3.046-0.879c-1.057-0.558-1.767-1.19-2.099-1.881
			c-0.356-0.732-0.541-1.674-0.541-2.781v-54.343c0-1.054,0.188-2.04,0.562-2.931c0.32-0.781,0.967-1.328,1.968-1.676
			c0.679-0.233,1.737-0.499,3.146-0.771c1.422-0.273,2.622-0.429,3.567-0.468l0.764-0.027v-5.334h-33.283V149.275z"/>
		<path fill="#FFFFFF" d="M1627.106,215.038c-1.25-0.32-2.263-0.71-2.981-1.143c-1.143-0.759-2.046-1.539-2.676-2.327
			c-0.625-0.78-1.198-1.824-1.71-3.138l-25.449-65.015l-0.197-0.505h-5.39l-0.196,0.502c-3.627,9.207-7.75,19.705-12.379,31.5
			c-4.574,11.669-8.844,22.382-12.692,31.866c-0.717,1.749-1.46,3.151-2.212,4.148c-0.732,0.97-1.787,1.912-3.129,2.81
			c-0.819,0.517-1.898,0.934-3.203,1.256c-1.362,0.322-2.497,0.522-3.37,0.579l-0.737,0.063v5.301h30.345v-5.323l-0.757-0.041
			c-2.745-0.13-5.244-0.586-7.418-1.332c-1.896-0.663-2.857-1.513-2.857-2.54c0-0.555,0.087-1.295,0.259-2.194
			c0.171-0.922,0.492-2.142,0.947-3.621c0.499-1.553,1.063-3.248,1.686-5.088c0.583-1.702,1.336-3.695,2.241-5.941h25.711
			l6.141,16.392c0.119,0.3,0.213,0.655,0.271,1.042c0.067,0.422,0.1,0.765,0.1,1.057c0,0.188-0.463,0.69-2.191,1.199
			c-1.787,0.512-4.075,0.858-6.803,1.025l-0.747,0.057v5.307h33.33v-5.328l-0.76-0.036
			C1629.437,215.535,1628.373,215.362,1627.106,215.038z M1598.357,188.538h-20.633l10.24-26.28L1598.357,188.538z"/>
		<path fill="#FFFFFF" d="M1699.144,149.209c-4.553-3.476-10.536-5.24-17.777-5.24H1645.7v5.307l0.733,0.055
			c0.958,0.07,2.093,0.203,3.423,0.397c1.275,0.181,2.595,0.5,3.891,0.943c1.111,0.415,1.789,0.986,2.063,1.755
			c0.327,0.894,0.49,1.925,0.49,3.068v54.394c0,1.24-0.21,2.259-0.63,3.019c-0.398,0.731-1.039,1.275-1.964,1.673
			c-0.387,0.173-1.259,0.423-3.181,0.629c-1.628,0.181-2.862,0.299-3.716,0.361l-0.732,0.063v5.301h34.36v-5.342l-0.775-0.021
			c-1.33-0.034-2.817-0.16-4.413-0.361c-1.944-0.253-2.835-0.49-3.231-0.642c-1.1-0.428-1.795-0.991-2.113-1.729
			c-0.367-0.833-0.552-1.82-0.552-2.95V187.84h7.757c3.711,0,7.283-0.472,10.598-1.408c3.341-0.94,6.45-2.448,9.239-4.474
			c2.849-2.043,5.112-4.665,6.728-7.798c1.609-3.125,2.427-6.755,2.427-10.8C1706.102,157.495,1703.761,152.729,1699.144,149.209z
			 M1669.354,149.914h6.792c2.914,0,5.368,0.442,7.315,1.321c1.907,0.855,3.467,2.074,4.637,3.625
			c1.118,1.472,1.908,3.215,2.362,5.174c0.471,2.022,0.709,4.033,0.709,5.978c0,1.4-0.192,2.996-0.573,4.746
			c-0.369,1.7-1.143,3.381-2.303,5c-1.14,1.652-2.87,3.06-5.156,4.175c-2.295,1.122-5.354,1.696-9.092,1.696h-4.692V149.914z"/>
		<path fill="#FFFFFF" d="M1780.234,149.209c-4.553-3.476-10.536-5.24-17.779-5.24h-35.665v5.307l0.731,0.055
			c0.958,0.07,2.094,0.203,3.425,0.397c1.274,0.181,2.594,0.5,3.895,0.943c1.108,0.415,1.784,0.986,2.059,1.755
			c0.326,0.894,0.489,1.925,0.489,3.068v54.394c0,1.24-0.21,2.259-0.629,3.019c-0.397,0.731-1.037,1.275-1.964,1.673
			c-0.389,0.173-1.26,0.423-3.179,0.629c-1.624,0.181-2.863,0.299-3.718,0.361l-0.733,0.063v5.301h34.361v-5.342l-0.772-0.021
			c-1.332-0.034-2.818-0.16-4.416-0.361c-1.941-0.253-2.831-0.49-3.23-0.642c-1.1-0.428-1.79-0.991-2.114-1.729
			c-0.364-0.833-0.551-1.82-0.551-2.95V187.84h7.758c3.718,0,7.286-0.472,10.599-1.408c3.338-0.94,6.448-2.448,9.235-4.474
			c2.851-2.043,5.113-4.665,6.729-7.798c1.613-3.125,2.428-6.755,2.428-10.8C1787.194,157.495,1784.852,152.729,1780.234,149.209z
			 M1750.444,149.914h6.792c2.913,0,5.373,0.442,7.313,1.321c1.907,0.855,3.471,2.074,4.642,3.625
			c1.115,1.472,1.909,3.215,2.364,5.174c0.464,2.022,0.703,4.033,0.703,5.978c0,1.4-0.191,2.996-0.571,4.746
			c-0.373,1.7-1.142,3.388-2.299,5c-1.14,1.652-2.876,3.06-5.158,4.175c-2.296,1.122-5.358,1.696-9.092,1.696h-4.694V149.914z"/>
		<path fill="#FFFFFF" d="M1807.237,149.275l0.738,0.055c1.02,0.07,2.328,0.293,3.885,0.649c1.598,0.367,2.924,0.757,3.954,1.162
			c1.245,0.484,2.065,1.069,2.367,1.697c0.338,0.719,0.515,1.651,0.515,2.768v54.603c0,1.247-0.228,2.216-0.673,2.873
			c-0.444,0.662-1.187,1.192-2.206,1.583c-0.671,0.259-1.901,0.455-3.65,0.595l-4.931,0.374v5.301h35.971v-5.336l-0.771-0.027
			c-1.132-0.034-2.55-0.216-4.204-0.544c-1.641-0.32-2.839-0.622-3.528-0.877c-1.104-0.469-1.852-1.06-2.285-1.819
			c-0.446-0.776-0.672-1.69-0.672-2.706v-54.55c0-1.042,0.21-1.993,0.616-2.843c0.37-0.756,1.109-1.295,2.268-1.654
			c1.1-0.338,2.417-0.626,3.914-0.849c1.522-0.23,2.834-0.359,3.894-0.397l0.769-0.021v-5.341h-35.971V149.275z"/>
		<path fill="#FFFFFF" d="M1880.254,143.969v5.307l0.74,0.055c1.049,0.07,2.402,0.258,4.029,0.548
			c1.583,0.287,2.915,0.702,3.962,1.238c1.125,0.544,1.863,1.166,2.192,1.841c0.365,0.726,0.541,1.652,0.541,2.755v39.889
			c0,3.263-0.17,6.268-0.51,8.925c-0.324,2.601-0.87,4.818-1.635,6.602c-0.769,1.827-1.935,3.312-3.472,4.408
			c-1.518,1.08-3.525,1.629-5.962,1.629c-2.547,0-4.582-0.409-6.047-1.227c-1.322-0.737-2.341-1.576-3.027-2.503
			c0.283-0.745,0.698-1.562,1.243-2.433c0.679-1.093,1.282-2.043,1.827-2.857c0.598-0.928,1.145-1.981,1.628-3.161
			c0.503-1.211,0.756-2.46,0.756-3.7c0-2.176-0.747-3.955-2.227-5.293c-1.448-1.318-3.371-1.979-5.725-1.979
			c-2.672,0-4.739,1.052-6.147,3.132c-1.338,1.993-2.018,4.302-2.018,6.853c0,5.705,1.925,10.305,5.728,13.687
			c3.776,3.362,8.743,5.062,14.76,5.062c3.859,0,7.344-0.703,10.366-2.1c3.017-1.381,5.647-3.347,7.82-5.822
			c1.889-2.104,3.342-4.551,4.327-7.265c0.981-2.7,1.479-5.298,1.479-7.71v-44.671c0-1.062,0.192-2.04,0.573-2.917
			c0.344-0.788,1.003-1.341,2.008-1.689c0.99-0.335,2.22-0.623,3.655-0.849c1.461-0.223,2.692-0.352,3.646-0.39l0.763-0.027v-5.334
			H1880.254z"/>
	</g>
	<g>
		<polygon fill="#EC671A" points="20.33,22.299 20.33,106.741 44.418,106.741 44.418,80.345 82.879,118.773 44.418,157.445 
			44.418,130.812 20.33,130.812 20.33,215.242 116.859,118.773 		"/>
		<polygon fill="#EC671A" points="232.542,215.242 232.542,130.812 208.449,130.812 208.449,157.215 169.986,118.773 
			208.449,80.109 208.449,106.741 232.542,106.741 232.542,22.305 135.966,118.773 		"/>
		<polygon fill="#EC671A" points="222.972,12.745 138.48,12.745 138.48,36.822 164.873,36.822 126.43,75.251 87.752,36.822 
			114.37,36.822 114.37,12.745 29.879,12.745 126.43,109.232 		"/>
		<polygon fill="#EC671A" points="29.879,224.809 114.37,224.809 114.37,200.73 87.966,200.73 126.442,162.302 165.106,200.73 
			138.483,200.73 138.483,224.809 222.972,224.803 126.442,128.323 		"/>
	</g>
</g>
</svg>
