<?xml version="1.0" encoding="utf-8"?>
<!-- Generator: Adobe Illustrator 16.0.0, SVG Export Plug-In . SVG Version: 6.00 Build 0)  -->
<!DOCTYPE svg PUBLIC "-//W3C//DTD SVG 1.1//EN" "http://www.w3.org/Graphics/SVG/1.1/DTD/svg11.dtd">
<svg version="1.1" id="Layer_1" xmlns="http://www.w3.org/2000/svg" xmlns:xlink="http://www.w3.org/1999/xlink" x="0px" y="0px"
	 width="4000px" height="1925.615px" viewBox="0 135.134 4000 1925.615" enable-background="new 0 135.134 4000 1925.615"
	 xml:space="preserve">
<linearGradient id="SVGID_1_" gradientUnits="userSpaceOnUse" x1="2193.5156" y1="1225.8833" x2="6055.8594" y2="1225.8833" gradientTransform="matrix(-1 0 0 1 6099.625 548.0527)">
	<stop  offset="0" style="stop-color:#2484C6"/>
	<stop  offset="1" style="stop-color:#2484C6;stop-opacity:0"/>
</linearGradient>
<rect x="43.765" y="1724.224" fill="url(#SVGID_1_)" stroke="#000000" stroke-miterlimit="10" width="3862.344" height="99.425"/>
<rect x="2990.566" y="1724.156" fill="#FFFFFF" stroke="#000000" stroke-miterlimit="10" width="20.192" height="99.424"/>
<rect x="1982.979" y="1724.224" fill="#FFFFFF" stroke="#000000" stroke-miterlimit="10" width="20.193" height="99.425"/>
<rect x="920.898" y="1724.224" fill="#FFFFFF" stroke="#000000" stroke-miterlimit="10" width="20.193" height="99.425"/>
<rect x="546.934" y="1205.556" fill="#99CB99" stroke="#000000" stroke-miterlimit="10" width="186.982" height="518.601"/>
<rect x="269.266" y="686.956" fill="#F499C1" stroke="#000000" stroke-miterlimit="10" width="186.982" height="1037.201"/>
<rect x="1493.248" y="1298.844" fill="#99CB99" stroke="#000000" stroke-miterlimit="10" width="186.982" height="425.313"/>
<rect x="1215.579" y="1064.646" fill="#F499C1" stroke="#000000" stroke-miterlimit="10" width="186.981" height="659.511"/>
<rect x="2492.854" y="1394.401" fill="#99CB99" stroke="#000000" stroke-miterlimit="10" width="186.982" height="329.755"/>
<rect x="2215.186" y="1175.116" fill="#F499C1" stroke="#000000" stroke-miterlimit="10" width="186.982" height="549.04"/>
<rect x="3465.535" y="1428.768" fill="#99CB99" stroke="#000000" stroke-miterlimit="10" width="186.981" height="295.39"/>
<rect x="3187.866" y="1394.401" fill="#F499C1" stroke="#000000" stroke-miterlimit="10" width="186.982" height="329.755"/>
<text transform="matrix(0.7617 0 0 1 880.8818 1988.1807)" font-family="'MyriadPro-Regular'" font-size="66.2825">$ 100</text>
<text transform="matrix(0.7617 0 0 1 1926.6328 1988.1807)" font-family="'MyriadPro-Regular'" font-size="66.2825">$ 1.000</text>
<text transform="matrix(0.7617 0 0 1 3784.4863 1988.1807)" font-family="'MyriadPro-Regular'" font-size="66.2825">$ 100.000</text>
<text transform="matrix(0.7617 0 0 1 2922.873 1988.1807)" font-family="'MyriadPro-Regular'" font-size="66.2825">$ 10.000</text>
<text transform="matrix(0.7617 0 0 1 43.7646 1970.5059)" font-family="'MyriadPro-Regular'" font-size="66.2825">$ 1</text>
<text transform="matrix(0.4423 0 0 1 1505.0273 1469.5215)" fill="#FFFFFF" font-family="'MyriadPro-Bold'" font-size="165.26">2.5%</text>
<text transform="matrix(0.4423 0 0 1 3480.6797 1615.3428)" fill="#FFFFFF" font-family="'MyriadPro-Bold'" font-size="165.26">1.8%</text>
<text transform="matrix(0.6218 0 0 1 567.6855 1498.2422)" fill="#FFFFFF" font-family="'MyriadPro-Bold'" font-size="165.26">3%</text>
<text transform="matrix(0.6218 0 0 1 2516.4121 1584.4102)" fill="#FFFFFF" font-family="'MyriadPro-Bold'" font-size="165.26">2%</text>
<text transform="matrix(0.6218 0 0 1 3206.377 1573.3633)" fill="#FFFFFF" font-family="'MyriadPro-Bold'" font-size="165.26">2%</text>
<text transform="matrix(0.6218 0 0 1 2230.3301 1354.6309)" fill="#FFFFFF" font-family="'MyriadPro-Bold'" font-size="165.26">3%</text>
<text transform="matrix(0.6218 0 0 1 1237.4551 1230.9033)" fill="#FFFFFF" font-family="'MyriadPro-Bold'" font-size="165.26">4%</text>
<text transform="matrix(0.6218 0 0 1 288.335 950.3066)" fill="#FFFFFF" font-family="'MyriadPro-Bold'" font-size="165.26">5%</text>
<text transform="matrix(0.6857 0 0 1 1402.5625 345.7061)" fill="#666766" font-family="'Verdana'" font-size="200.3719">Fees in Percentage</text>
<text transform="matrix(0.6857 0 0 1 2705.8691 345.7061)" fill="#666766" font-family="'Verdana'" font-size="200.3719" letter-spacing="-1.458">s </text>
<text transform="matrix(0.6218 0 0 1 238.4688 522.8984)" fill="#F499C1" font-family="'MyriadPro-Bold'" font-size="106.0521">Average</text>
<text transform="matrix(0.6218 0 0 1 287.1016 650.1621)" fill="#F499C1" font-family="'MyriadPro-Bold'" font-size="106.0521">Bank</text>
<text transform="matrix(0.6218 0 0 1 540.583 1161.4219)" fill="#99CB99" font-family="'MyriadPro-Bold'" font-size="106.0521">NBWM</text>
<text transform="matrix(0.6218 0 0 1 1188.6016 900.5957)" fill="#F499C1" font-family="'MyriadPro-Bold'" font-size="106.0521">Average</text>
<text transform="matrix(0.6218 0 0 1 1237.2344 1027.8584)" fill="#F499C1" font-family="'MyriadPro-Bold'" font-size="106.0521">Bank</text>
<text transform="matrix(0.6218 0 0 1 1494.082 1254.1025)" fill="#99CB99" font-family="'MyriadPro-Bold'" font-size="106.0521">NBWM</text>
<text transform="matrix(0.6218 0 0 1 2179.7949 1013.2764)" fill="#F499C1" font-family="'MyriadPro-Bold'" font-size="106.0521">Average</text>
<text transform="matrix(0.6218 0 0 1 2228.4277 1140.5391)" fill="#F499C1" font-family="'MyriadPro-Bold'" font-size="106.0521">Bank</text>
<text transform="matrix(0.6218 0 0 1 2488.6396 1349.1074)" fill="#99CB99" font-family="'MyriadPro-Bold'" font-size="106.0521">NBWM</text>
<text transform="matrix(0.6218 0 0 1 3152.9609 1229.8594)" fill="#F499C1" font-family="'MyriadPro-Bold'" font-size="106.0521">Average</text>
<text transform="matrix(0.6218 0 0 1 3201.5938 1357.1221)" fill="#F499C1" font-family="'MyriadPro-Bold'" font-size="106.0521">Bank</text>
<text transform="matrix(0.6218 0 0 1 3456.7578 1377.8906)" fill="#99CB99" font-family="'MyriadPro-Bold'" font-size="106.0521">NBWM</text>
</svg>
